<?xml version="1.0" ?><!DOCTYPE svg  PUBLIC '-//W3C//DTD SVG 1.1//EN'  'http://www.w3.org/Graphics/SVG/1.1/DTD/svg11.dtd'><svg enable-background="new 0 0 512 512" height="512px" id="Coffin" version="1.1" viewBox="0 0 512 512" width="512px" xml:space="preserve" xmlns="http://www.w3.org/2000/svg" xmlns:xlink="http://www.w3.org/1999/xlink"><g><path d="M386.815,91.511H259.73l-12.193,37.165l-36.545-39.175L94.719,140.44l6.926,91.827l117.579,190.232l59.552-26.092   l-0.001-0.002l45.698-20.021h38.24l33.309-191.512l-24.127-72.687h-97.231l-5.47,16.469c-0.863,2.601,0.545,5.409,3.146,6.272   h0.001c2.6,0.864,5.408-0.544,6.271-3.145l3.213-9.673h82.908l21.084,63.521l-31.45,180.83h-27.077l-53.443-209.582l-18.582-19.919   l11.655-35.524h112.734l27.423,82.616l-35.32,203.083h-46.135c-2.74,0-4.961,2.222-4.961,4.962s2.221,4.961,4.961,4.961h54.48   l37.18-213.765L386.815,91.511z M223.134,409.952l-107.21-173.457l88.11,7.758l61.804,146.988L223.134,409.952z M317.586,368.567   l-42.658,18.689l-61.785-146.945l53.918-69.884L317.586,368.567z M208.633,229.911l-39.489-90.135   c-1.1-2.51-4.026-3.653-6.536-2.553c-2.51,1.1-3.653,4.026-2.554,6.536l39.491,90.137l-88.413-7.785l-5.989-79.403l103.39-45.295   l54.318,58.225L208.633,229.911z"/><path d="M320.66,154.179L320.66,154.179c-2.741,0-4.963,2.222-4.963,4.962v19.848h-15.16c-2.74,0-4.962,2.221-4.962,4.961   s2.222,4.961,4.962,4.961h15.16v64.851c0,2.741,2.222,4.961,4.962,4.961h0.001c2.74,0,4.961-2.221,4.961-4.961v-64.851h15.162   c2.74,0,4.961-2.221,4.961-4.961s-2.221-4.961-4.961-4.961h-15.162v-19.848C325.621,156.4,323.4,154.179,320.66,154.179z"/></g></svg>